<mxfile host="app.diagrams.net" modified="2024-05-04T02:47:23.029Z" agent="Mozilla/5.0 (Windows NT 10.0; Win64; x64) AppleWebKit/537.36 (KHTML, like Gecko) Chrome/124.0.0.0 Safari/537.36" version="24.3.1" etag="YeTW0rDu5jQbxEdEpgTT" type="github">
  <diagram name="第 1 页" id="bm_e5R0qvy2-egH_GKH-">
    <mxGraphModel>
      <root>
        <mxCell id="0" />
        <mxCell id="1" parent="0" />
      </root>
    </mxGraphModel>
  </diagram>
</mxfile>
